<svg xmlns="http://www.w3.org/2000/svg" xmlns:xlink="http://www.w3.org/1999/xlink" width="278.553" height="92" viewBox="0 0 278.553 92">
  <defs>
    <clipPath id="clip-path">
      <rect id="Rectangle_20236" data-name="Rectangle 20236" width="17.932" height="42.007" fill="#007bc8"/>
    </clipPath>
  </defs>
  <g id="Group_51087" data-name="Group 51087" transform="translate(-202 -2794.366)">
    <text id="出展ブース" transform="translate(215 2860.366)" fill="#fff" stroke="#007bc8" stroke-linejoin="round" stroke-width="13" font-size="46" font-family="ZenKakuGothicNew-Black, Zen Kaku Gothic New" font-weight="800"><tspan x="0" y="0">出展ブース</tspan></text>
    <text id="出展ブース-2" data-name="出展ブース" transform="translate(215 2860.683)" fill="#fff" font-size="46" font-family="ZenKakuGothicNew-Black, Zen Kaku Gothic New" font-weight="800"><tspan x="0" y="0">出展ブース</tspan></text>
    <g id="Group_51065" data-name="Group 51065" transform="matrix(0.883, -0.469, 0.469, 0.883, 445, 2803.276)">
      <g id="Group_51061" data-name="Group 51061" transform="translate(0 0)" clip-path="url(#clip-path)">
        <path id="Path_39207" data-name="Path 39207" d="M14.453,58.215c.17.129,0,.42-.17.291s0-.42.17-.291q-1.221-.922-2.447-1.845L7.677,53.1l-4.331-3.27a.171.171,0,0,0-.229.061,13.291,13.291,0,0,1-2.9,2.962.172.172,0,0,0,0,.29l2.644,1.9,4.695,3.381,4.7,3.383a.164.164,0,0,0,.2-.027l1.585-1.866q.194-.228.388-.458a2.493,2.493,0,0,0,.349-.442c.184-.349-.057-.6-.324-.8M3.407,50.062c-.037.05-.07.1-.111.149-.039-.031-.079-.061-.118-.09.075-.02.152-.041.229-.059M.389,53.144v-.29c.063.045.129.093.193.14-.063.052-.127.1-.193.15m11.831,8.4c.029-.036.061-.07.091-.107.036.025.075.052.111.079l-.2.027" transform="translate(-0.055 -19.828)" fill="#007bc8"/>
        <path id="Path_39208" data-name="Path 39208" d="M.553,54.87c.064.045.129.093.193.141-.063.052-.126.1-.193.149Z" transform="translate(-0.22 -21.844)" fill="#007bc8"/>
        <path id="Path_39209" data-name="Path 39209" d="M5.188,50.291c.075-.02.152-.041.229-.059-.037.05-.07.1-.111.15-.039-.032-.079-.061-.118-.091" transform="translate(-2.065 -19.997)" fill="#007bc8"/>
        <path id="Path_39210" data-name="Path 39210" d="M20.3,69.138c.036.025.075.052.111.079l-.2.027c.029-.036.061-.07.091-.107" transform="translate(-8.045 -27.524)" fill="#007bc8"/>
        <path id="Path_39211" data-name="Path 39211" d="M23.591,64.046c-.17-.129,0-.42.17-.29s0,.42-.17.29" transform="translate(-9.363 -25.368)" fill="#007bc8"/>
        <path id="Path_39212" data-name="Path 39212" d="M19.249,31.1a.178.178,0,0,0-.175-.177q-1.612-.06-3.22-.081Q12.98,30.8,10.11,30.9q-2.85.1-5.692.329c.209,0,.2.333-.016.352H4.386c-.211,0-.2-.333.016-.352-.386.031-.855.016-1.012.449a1.779,1.779,0,0,0-.068.544c-.007.229-.011.458-.011.689a23.672,23.672,0,0,0,.155,2.8.181.181,0,0,0,.177.177q1.64-.033,3.281-.052c2.012-.02,4.025-.025,6.037,0s4.027.07,6.039.156a.179.179,0,0,0,.175-.177,37.959,37.959,0,0,1,.075-4.717M3.642,35.539l.156,0c0,.058.011.118.019.176-.059-.058-.116-.118-.175-.175m15.18.277c0-.061,0-.12-.007-.181l.184.007c-.059.057-.118.116-.177.175m.064-4.549c0-.057.007-.111.011-.168l.177.175-.188-.007" transform="translate(-1.318 -12.273)" fill="#007bc8"/>
        <path id="Path_39213" data-name="Path 39213" d="M4.018,38.65c0,.059.011.118.018.177-.059-.059-.116-.118-.175-.175l.156,0" transform="translate(-1.537 -15.387)" fill="#007bc8"/>
        <path id="Path_39214" data-name="Path 39214" d="M5.012,31.847H5c-.211,0-.2-.333.016-.352h.016c.209,0,.2.333-.016.352" transform="translate(-1.928 -12.538)" fill="#007bc8"/>
        <path id="Path_39215" data-name="Path 39215" d="M29.071,38.812l.184.007c-.059.057-.118.116-.177.175,0-.061,0-.12-.007-.181" transform="translate(-11.573 -15.451)" fill="#007bc8"/>
        <path id="Path_39216" data-name="Path 39216" d="M29.376,31.452l-.188-.007c0-.057.007-.111.011-.168l.177.175" transform="translate(-11.62 -12.451)" fill="#007bc8"/>
        <path id="Path_39217" data-name="Path 39217" d="M14.146,2.645A24.646,24.646,0,0,0,11.225.025a.175.175,0,0,0-.213.027C9.822,1.18,8.6,2.274,7.377,3.361c-1.1.971-2.2,1.934-3.286,2.907-.277.25-.549.506-.839.74q-.348.279-.7.557c-.6.481-1.2.964-1.771,1.479a5.764,5.764,0,0,0-.6.6A.877.877,0,0,0,.018,9.9c-.054.149.025.254.1.381-.12-.186.168-.361.3-.188,0,.007.007.009.007.011.123.193-.184.37-.3.177.084.129.17.252.263.372a14.431,14.431,0,0,0,1.492,1.676,4.47,4.47,0,0,0,.6.512.328.328,0,0,0,.356.059,3.718,3.718,0,0,0,.506-.385c.326-.263.648-.533.968-.805q1.5-1.262,2.971-2.556,1.81-1.585,3.592-3.2c1.107-1,2.2-2.016,3.275-3.057a.178.178,0,0,0,0-.249M11.259.3l-.113.107c-.032-.027-.066-.052-.1-.077.07-.011.141-.02.211-.029M.349,10.008v0l0,0v0c0,.014,0,.009,0,0s0,0,0,0v0l0,0c0-.007,0-.011,0-.011A.141.141,0,0,0,.34,9.953l.023.034v0l-.014.018m2.377,2.572-.046.007a.143.143,0,0,1-.025,0c.007,0,.02-.009.032-.016s.011-.007.016-.011l.023.014,0,0h0l0,.007s-.011,0-.011-.007M13.9,2.894l-.125-.129c.043-.039.084-.079.125-.12Z" transform="translate(0 0)" fill="#007bc8"/>
        <path id="Path_39218" data-name="Path 39218" d="M.572,16.58a.142.142,0,0,0-.007-.043c.007.009.013.02.022.034v0l-.013.018v0l0,0v0c0,.013,0,.009,0,0V16.6l0,0c0-.007,0-.011,0-.011" transform="translate(-0.225 -6.583)" fill="#007bc8"/>
        <path id="Path_39219" data-name="Path 39219" d="M.488,16.728c.122.193-.184.37-.3.177s.168-.361.3-.188c0,.007.007.009.007.011" transform="translate(-0.062 -6.627)" fill="#007bc8"/>
        <path id="Path_39220" data-name="Path 39220" d="M4.489,20.89l0,.007s-.011,0-.011-.007l-.046.007a.133.133,0,0,1-.025,0c.007,0,.02-.009.032-.016s.011-.007.016-.011l.023.013,0,0Z" transform="translate(-1.756 -8.31)" fill="#007bc8"/>
        <path id="Path_39221" data-name="Path 39221" d="M18.356.527c.07-.011.141-.02.211-.029L18.454.6c-.032-.027-.066-.052-.1-.077" transform="translate(-7.308 -0.198)" fill="#007bc8"/>
        <path id="Path_39222" data-name="Path 39222" d="M23.01,4.394v.249l-.125-.129c.043-.039.084-.079.125-.12" transform="translate(-9.111 -1.749)" fill="#007bc8"/>
      </g>
    </g>
  </g>
</svg>
